<svg xmlns="http://www.w3.org/2000/svg" viewBox="0 0 640 410">
  <rect width="640" height="410" fill="#141014"/>
  <circle cx="496" cy="100" r="165" fill="#d8bd8d" opacity=".1"/>
  <rect x="48" y="46" width="544" height="318" rx="26" fill="#0c090c" stroke="#ffffff" stroke-opacity=".16"/>
  <rect x="76" y="80" width="168" height="14" rx="7" fill="#ffffff" opacity=".26"/>
  <rect x="76" y="134" width="182" height="15" rx="8" fill="#ffffff" opacity=".3"/>
  <rect x="268" y="138" width="150" height="6" rx="3" fill="#ffffff" opacity=".12"/>
  <rect x="434" y="132" width="56" height="18" rx="9" fill="#d8bd8d" opacity=".8"/>
  <rect x="76" y="180" width="150" height="15" rx="8" fill="#ffffff" opacity=".22"/>
  <rect x="236" y="184" width="182" height="6" rx="3" fill="#ffffff" opacity=".12"/>
  <rect x="434" y="178" width="56" height="18" rx="9" fill="#ffffff" opacity=".2"/>
  <rect x="76" y="226" width="196" height="15" rx="8" fill="#ffffff" opacity=".22"/>
  <rect x="282" y="230" width="136" height="6" rx="3" fill="#ffffff" opacity=".12"/>
  <rect x="434" y="224" width="56" height="18" rx="9" fill="#ffffff" opacity=".2"/>
  <rect x="76" y="288" width="184" height="40" rx="20" fill="#d8bd8d"/>
  <circle cx="486" cy="290" r="15" fill="none" stroke="#d8bd8d" stroke-width="9"/>
  <circle cx="530" cy="316" r="15" fill="none" stroke="#d8bd8d" stroke-width="9"/>
  <path d="M497 279l62-52m-105 88l62-52" stroke="#d8bd8d" stroke-width="9" stroke-linecap="round"/>
</svg>
